<svg width="400" height="300" xmlns="http://www.w3.org/2000/svg">
 <defs>
  <linearGradient gradientUnits="userSpaceOnUse" gradientTransform="matrix(10.316452026367188,0,0,-9.943885803222656,199.99990844726562,3529.69775390625)" y2="344" x2="12.282" y1="332.564" x1="12.282" id="svg_6">
   <stop stop-color="#005ba1" offset="0"/>
   <stop stop-color="#0074cd" offset="0.525"/>
   <stop stop-color="#0078d4" offset="1"/>
  </linearGradient>
  <linearGradient gradientUnits="userSpaceOnUse" gradientTransform="matrix(10.316452026367188,0,0,-9.943885803222656,199.99990844726562,3529.69775390625)" y2="340.871" x2="7.923" y1="326" x1="7.923" id="svg_5">
   <stop stop-color="#0078d4" offset="0"/>
   <stop stop-color="#1380da" offset="0.16"/>
   <stop stop-color="#3c91e5" offset="0.53"/>
   <stop stop-color="#559cec" offset="0.82"/>
   <stop stop-color="#5ea0ef" offset="1"/>
  </linearGradient>
  <linearGradient gradientUnits="userSpaceOnUse" gradientTransform="matrix(10.316452026367188,0,0,9.943885803222656,-2874.302490234375,3589.361328125)" y2="-337.001" x2="312.477" y1="-331.998" x1="312.477" id="svg_4">
   <stop stop-color="#32bedd" offset="0"/>
   <stop stop-color="#32caea" offset="0.175"/>
   <stop stop-color="#32d2f2" offset="0.41"/>
   <stop stop-color="#32d4f5" offset="0.775"/>
  </linearGradient>
  <radialGradient gradientUnits="userSpaceOnUse" gradientTransform="matrix(10.687843322753906,0,0,-10.212370872497559,1410.1920166015625,3775.509765625)" r="3.315" cy="349.854" cx="-107.222" id="svg_3">
   <stop stop-color="#5ea0ef" offset="0.183"/>
   <stop stop-color="#0078d4" offset="1"/>
  </radialGradient>
 </defs>
 <g>
  <title>Layer 1</title>
  <g transform="rotate(0.151585 292.848 198.506)" opacity="0.3" stroke="null">
   <defs stroke="null" transform="translate(183 90) translate(-308 -201) translate(0 10) translate(36 0) translate(-0.0000305176 0) translate(0.0000305176 0) translate(-309 -156) translate(117 40) translate(473 264) translate(-315 -158) translate(-1 0) translate(-1 0) translate(0 1) translate(0 -0.0778351) translate(55 0) translate(0.0000305176 0) translate(0.209869 0) translate(0.0596455 0.0525255) translate(-0.0392654 -0.0437561) translate(2 -2) translate(7 -8) translate(-0.550249 0.348636) translate(-0.123311 0.268437) translate(-1.36182 -0.0450014) translate(1.1761 -3.40948) translate(0 0.00112915) translate(391 0) translate(0 290.999) translate(409 309.002) scale(6.79734 2.78761) translate(-409 -309.002) translate(42.3436 91.623) scale(1 1.8221) translate(-42.3436 -91.623) translate(42.1432 50.2754) scale(1.0674 1.03787) translate(-42.1432 -50.2754) translate(57.4651 48.4917) scale(0.915003 1.17178) translate(-57.4651 -48.4917) translate(46.076 57.8226) scale(1.25171 1.24201) translate(-46.076 -57.8226) translate(54.8058 28.5478) scale(1.24148 1.29609) translate(-54.8058 -28.5478)">
    <clipPath stroke="null" id="svg_2">
     <path stroke="null" fill="none" d="m338.945,176.72052a3.416,3.416 0 1 1 -4.117,-2.527l0,0a3.416,3.416 0 0 1 4.117,2.527z"/>
    </clipPath>
   </defs>
   <rect stroke="null" y="109" fill="url(#svg_6)" rx="1" height="113.71828" width="117.97894" x="267.7172"/>
   <rect stroke="null" x="200.00002" fill="url(#svg_5)" rx="1" height="147.87553" width="163.47449" y="140.11442"/>
   <g stroke="null">
    <path stroke="null" fill="url(#svg_4)" d="m385.69615,272.40788a16.27936,15.69145 0 0 0 -14.14386,-15.10476a20.6329,19.88777 0 0 0 -21.25189,-19.0326a21.21062,20.44463 0 0 0 -20.19961,13.2552a19.52904,18.82378 0 0 0 -17.10468,18.08793a19.76632,19.05249 0 0 0 20.44721,18.3763l34.83866,0a4.05437,3.90795 0 0 0 0.86658,0a16.58885,15.98977 0 0 0 16.54759,-15.58207z"/>
    <path stroke="null" fill="#f2f2f2" d="m337.74528,263.54788l12.00835,-11.70395a1.39272,1.34242 0 0 1 1.97044,0l0,0l12.00835,11.70395a0.60867,0.58669 0 0 1 0.09285,0.8154a0.58804,0.5668 0 0 1 -0.55709,0.21877l-7.37626,0a0.64994,0.62646 0 0 0 -0.64994,0.62646l0,0l0,14.34903a0.46424,0.44747 0 0 1 -0.41266,0.48725l-8.12936,0a0.50551,0.48725 0 0 1 -0.51582,-0.47731l0,0l0,-14.44847a0.59835,0.57675 0 0 0 -0.50551,-0.62646l-7.51038,0a0.59835,0.57675 0 0 1 -0.51582,-0.64635l0,0a0.53646,0.51708 0 0 1 0.09285,-0.29832z"/>
   </g>
   <g stroke="null">
    <path stroke="null" fill="#50e6ff" d="m229.77329,182.24667a1.03165,0.99439 0 0 1 -1.03165,-0.99439l0,0a11.56474,11.1471 0 0 0 -11.52348,-11.09738a1.03165,0.99439 0 0 1 -1.03165,-0.99439l0,0a1.03165,0.99439 0 0 1 1.03165,-0.99439l0,0a11.55443,11.13715 0 0 0 11.54411,-11.08743a1.03165,0.99439 0 0 1 1.03165,-0.99439l0,0a1.03165,0.99439 0 0 1 1.03165,0.99439l0,0a11.56474,11.1471 0 0 0 11.47189,11.12721a1.03165,0.99439 0 0 1 1.03165,0.99439l0,0a1.03165,0.99439 0 0 1 -1.03165,0.99439l0,0a11.54411,11.12721 0 0 0 -11.52348,11.07749a1.03165,0.99439 0 0 1 -1.0007,0.9745z"/>
    <path stroke="null" fill="#50e6ff" d="m302.46301,249.72588a0.80468,0.77562 0 0 1 -0.815,-0.77562l0,0a9.28481,8.9495 0 0 0 -9.22291,-8.89978a0.80468,0.77562 0 0 1 -0.815,-0.78557l0,0a0.80468,0.77562 0 0 1 0.815,-0.77562l0,0a9.28481,8.9495 0 0 0 9.22291,-8.89978a0.80468,0.77562 0 0 1 0.815,-0.77562l0,0a0.80468,0.77562 0 0 1 0.80468,0.77562l0,0a9.28481,8.9495 0 0 0 9.23322,8.89978a0.82532,0.79551 0 0 1 0.815,0.77562a0.815,0.78557 0 0 1 -0.815,0.78557l0,0a9.28481,8.9495 0 0 0 -9.23322,8.89978a0.79437,0.76568 0 0 1 -0.80468,0.77562z"/>
    <g stroke="null">
     <path stroke="null" fill="url(#svg_3)" d="m298.76972,194.78591a35.241,33.96831 0 1 1 -42.47283,-25.1282l0,0a35.241,33.96831 0 0 1 42.47283,25.1282z"/>
     <g stroke="null" clip-path="url(#svg_2)">
      <g stroke="null">
       <path stroke="null" fill="#f2f2f2" d="m245.58842,225.70145a9.4086,9.06882 0 1 0 0.49519,-18.1277l-0.46424,0a7.00487,6.7519 0 0 0 0,-0.77562a9.48082,9.13843 0 0 0 -9.51177,-9.05888l-7.03582,0a35.85999,34.56495 0 0 0 9.16101,27.96221l7.35563,0z"/>
       <path stroke="null" fill="#f2f2f2" d="m299.21333,196.35704a0.52614,0.50714 0 0 0 0,-0.23865a34.37442,33.13303 0 0 0 -8.07778,-15.91022a11.47189,11.0576 0 0 0 -1.66095,-0.49719a10.37835,10.00355 0 0 0 -12.86462,6.85134a10.79101,10.4013 0 0 0 -0.38171,2.33681a10.68784,10.30187 0 0 0 -1.15544,-0.06961a9.97601,9.61574 0 0 0 -3.33221,18.61495a8.25316,7.95511 0 0 0 3.09494,0.55686l11.65759,0a77.68288,74.87746 0 0 0 12.72018,-11.64429z"/>
      </g>
     </g>
    </g>
    <path stroke="null" fill="#50e6ff" d="m311.53117,174.31144c-3.61076,-5.79729 -12.05993,-8.05455 -23.86195,-6.36409a84.5949,81.53987 0 0 0 -11.95677,2.50586a37.04638,35.70849 0 0 1 8.7793,4.24604c1.3824,-0.29832 2.77513,-0.64635 4.12658,-0.83529a43.3291,41.76432 0 0 1 6.3343,-0.49719a12.56544,12.11165 0 0 1 11.25525,3.97755l0,0c2.1974,3.53008 0.34044,9.56602 -5.09633,16.60629a96.03585,92.56764 0 0 1 -27.29733,22.44335a96.11838,92.64719 0 0 1 -33.44594,12.51935c-8.98563,1.30265 -15.40246,0 -17.59987,-3.52014s-0.35076,-9.57596 5.08601,-16.57646c0.67057,-0.86512 0.83563,-1.29271 1.59905,-2.16777a36.50992,35.19141 0 0 1 0.15475,-9.02905a65.95308,63.57126 0 0 0 -6.71601,7.59713c-7.11835,9.17821 -9.04753,17.42169 -5.44709,23.21897a18.16727,17.51118 0 0 0 16.66107,6.96072a47.7858,46.06008 0 0 0 7.22152,-0.54691a102.64869,98.94167 0 0 0 35.71556,-13.28503a102.29793,98.60357 0 0 0 29.0305,-24.0642c7.13898,-9.14838 9.06816,-17.39186 5.4574,-23.18914z"/>
   </g>
  </g>
 </g>
</svg>