<svg xmlns="http://www.w3.org/2000/svg" viewBox="0 0 16 16"><style>.icon-canvas-transparent{opacity:0;fill:#f6f6f6}.icon-vs-out{fill:#f6f6f6}.icon-vs-bg{fill:#424242}.icon-vs-fg{fill:#f0eff1}</style><path class="icon-canvas-transparent" d="M16 16H0V0h16v16z" id="canvas"/><path class="icon-vs-out" d="M15 3v10h-5v3H2V6h1V0h8v3h4z" id="outline"/><path class="icon-vs-bg" d="M5 6H4V1h6v2H9V2H5v4zm3-2v2h1V5h4v6h-3v1h4V4H8zM5 7h4v8H3V7h2zm3 1H4v6h4V8z" id="iconBg"/><path class="icon-vs-fg" d="M13 5v6h-3V6H9V5h4zM8 8H4v6h4V8zm1-6H5v4h3V4h1V2z" id="iconFg"/></svg>