<svg xmlns="http://www.w3.org/2000/svg" viewBox="0 0 16 16"><style>.icon-canvas-transparent{opacity:0;fill:#f6f6f6}.icon-vs-out{fill:#f6f6f6}.icon-vs-fg{fill:#f0eff1}.icon-vs-blue{fill:#1ba1e2}</style><path class="icon-canvas-transparent" d="M0 0h16v16H0z" id="canvas"/><path class="icon-vs-out" d="M11.726.614C10.707.218 9.384 0 8 0S5.292.218 4.274.614C2.295 1.384 2 2.596 2 3.25v9.5c0 .654.295 1.866 2.274 2.635C5.293 15.781 6.617 16 8 16s2.706-.219 3.726-.615C13.704 14.616 14 13.404 14 12.75v-9.5c0-.654-.296-1.866-2.274-2.636z" id="outline"/><path class="icon-vs-fg" d="M8 4.5c2.588 0 4-.826 4-1.25S10.588 2 8 2s-4 .826-4 1.25S5.412 4.5 8 4.5z" id="iconFg"/><path class="icon-vs-blue" d="M13 12.75v-9.5c0-.688-.581-1.293-1.637-1.703C10.457 1.194 9.263 1 8 1s-2.457.194-3.363.547C3.581 1.957 3 2.562 3 3.25v9.5c0 .688.581 1.293 1.637 1.703.906.353 2.1.547 3.363.547s2.457-.194 3.363-.547C12.419 14.043 13 13.438 13 12.75zM8 2c2.588 0 4 .826 4 1.25S10.588 4.5 8 4.5s-4-.826-4-1.25S5.412 2 8 2z" id="iconBg"/></svg>