<svg xmlns="http://www.w3.org/2000/svg" viewBox="0 0 16 16"><style>.icon-canvas-transparent{opacity:0;fill:#f6f6f6}.icon-vs-out{fill:#f6f6f6}.icon-vs-bg{fill:#424242}.icon-vs-fg{fill:#f0eff1}.icon-vs-blue{fill:#1ba1e2}</style><path class="icon-canvas-transparent" d="M16 16H0V0h16v16z" id="canvas"/><path class="icon-vs-out" d="M16 0v13h-6c0 1.711-2.149 3-5 3s-5-1.289-5-3V7c0-1.71 2.149-3 5-3 .726 0 1.393.095 2 .249V0h9z" id="outline"/><path class="icon-vs-bg" d="M8 1v3.579c1.224.537 2 1.4 2 2.421v5h5V1H8zm6 10h-1v-1h1v1zm0-6H9V4h5v1zm0-2H9V2h5v1z" id="iconBg"/><path class="icon-vs-fg" d="M14 2v1H9V2h5zm-1 9h1v-1h-1v1zM9 5h5V4H9v1zm-4 .675c-1.999 0-3.325.798-3.325 1.325S3.001 8.325 5 8.325 8.325 7.527 8.325 7 6.999 5.675 5 5.675z" id="iconFg"/><path class="icon-vs-blue" d="M5 5c-2.209 0-4 .896-4 2v6c0 1.104 1.791 2 4 2s4-.896 4-2V7c0-1.104-1.791-2-4-2zm0 3.325c-1.999 0-3.325-.798-3.325-1.325S3.001 5.675 5 5.675 8.325 6.473 8.325 7 6.999 8.325 5 8.325z" id="colorImportance"/></svg>