<svg width="16" height="16" viewBox="0 0 16 16" fill="none" xmlns="http://www.w3.org/2000/svg">
  <path d="M10.5 4H5.5C5.224 4 5 4.224 5 4.5C5 4.776 5.224 5 5.5 5H10.5C10.776 5 11 4.776 11 4.5C11 4.224 10.776 4 10.5 4Z" fill="#3B3B3B" />
  <path d="M8.5 7H5.5C5.224 7 5 7.224 5 7.5C5 7.776 5.224 8 5.5 8H8.5C8.776 8 9 7.776 9 7.5C9 7.224 8.776 7 8.5 7Z" fill="#3B3B3B" />
  <path d="M5.5 10H8.5C8.776 10 9 10.224 9 10.5C9 10.776 8.776 11 8.5 11H5.5C5.224 11 5 10.776 5 10.5C5 10.224 5.224 10 5.5 10Z" fill="#3B3B3B" />
  <path d="M11 7.5C11 7.77614 10.7761 8 10.5 8C10.2239 8 10 7.77614 10 7.5C10 7.22386 10.2239 7 10.5 7C10.7761 7 11 7.22386 11 7.5Z" fill="#3B3B3B" />
  <path fill-rule="evenodd" clip-rule="evenodd" d="M11.25 1H4.75C3.784 1 3 1.784 3 2.75V12.25C3 13.216 3.784 14 4.75 14H11.25C12.216 14 13 13.216 13 12.25V2.75C13 1.784 12.216 1 11.25 1ZM12 12.25C12 12.664 11.664 13 11.25 13H4.75C4.336 13 4 12.664 4 12.25V2.75C4 2.336 4.336 2 4.75 2H11.25C11.664 2 12 2.336 12 2.75V12.25Z" fill="#3B3B3B" />
</svg>
