<svg xmlns="http://www.w3.org/2000/svg" viewBox="0 0 16 16"><defs><style>.icon-canvas-transparent,.icon-vs-out{fill:#f6f6f6}.icon-canvas-transparent{opacity:0}.icon-vs-bg{fill:#424242}</style></defs><title>Process_16x</title><path class="icon-canvas-transparent" d="M16 0v16H0V0z"/><path class="icon-vs-out" d="M16 4.586l-1.018.6L16 5.743v.72l-.031.122a5.462 5.462 0 0 1-.5 1.264l-.376.681-1.306-.34.373 1.283-.657.4a4.885 4.885 0 0 1-.6.333 4.055 4.055 0 0 1-.549.183l-.851.244-.681-1.161-.65 1.185-.2-.051A3.58 3.58 0 0 1 10 11a3.852 3.852 0 0 1-.046.535l-.1.77-.782.191-.354.044.7.9-.476.614a5.038 5.038 0 0 1-.89.891l-.614.477-.9-.7-.138 1.12-.77.1A4.623 4.623 0 0 1 5 16a3.882 3.882 0 0 1-.536-.046l-.769-.1-.195-.782-.044-.353-.9.7-.614-.477a5.038 5.038 0 0 1-.89-.891l-.475-.614.7-.9L.158 12.4l-.1-.769A4.553 4.553 0 0 1 0 11a3.853 3.853 0 0 1 .046-.535l.1-.769.781-.196.354-.044-.7-.9.475-.614a5.022 5.022 0 0 1 .89-.891l.614-.477.9.7.14-1.116.77-.1A4.548 4.548 0 0 1 5 6a3.153 3.153 0 0 1 .387.033l-.014-.049L6.532 5.3l-1.181-.643.194-.757a5.422 5.422 0 0 1 .5-1.262l.375-.683 1.307.34-.376-1.287.764-.452a4.069 4.069 0 0 1 .506-.271A4.077 4.077 0 0 1 9.159.1l.363-.1h.578l.6 1.021L11.257 0h.719l.124.032a5.426 5.426 0 0 1 1.262.5l.681.376-.34 1.3L15 1.838l.452.769a4.289 4.289 0 0 1 .267.5 4.07 4.07 0 0 1 .185.556l.1.354z" style="display: none;"/><path class="icon-vs-bg" d="M13.8 5.675a3.058 3.058 0 0 0-.012-.947l1.181-.693A4.266 4.266 0 0 0 14.8 3.5a4.563 4.563 0 0 0-.271-.487l-1.318.387a3.015 3.015 0 0 0-.68-.658l.347-1.329A4.421 4.421 0 0 0 11.849 1l-.661 1.2a3.075 3.075 0 0 0-.948.012l-.694-1.177a4.36 4.36 0 0 0-.53.168 4.32 4.32 0 0 0-.487.271l.383 1.315a3.044 3.044 0 0 0-.659.681l-1.33-.347a4.436 4.436 0 0 0-.409 1.03l1.2.66a3.039 3.039 0 0 0 .011.947l-1.181.693a4.294 4.294 0 0 0 .168.531 4.244 4.244 0 0 0 .271.487l1.317-.38a3.019 3.019 0 0 0 .681.658l-.346 1.329a4.454 4.454 0 0 0 1.03.41l.661-1.2a3.076 3.076 0 0 0 .948-.012l.693 1.181a4.272 4.272 0 0 0 .53-.168 4.108 4.108 0 0 0 .486-.271L12.6 7.7a3.041 3.041 0 0 0 .659-.681l1.33.347A4.392 4.392 0 0 0 15 6.335zm-2.169 1.59a2.2 2.2 0 1 1 1.149-2.891 2.2 2.2 0 0 1-1.152 2.891zm-3.917 3.077a2.744 2.744 0 0 0-.331-.795l.768-.984a4 4 0 0 0-.712-.713l-.985.768a2.783 2.783 0 0 0-.8-.331L5.5 7.051A3.9 3.9 0 0 0 5 7a3.9 3.9 0 0 0-.5.051l-.157 1.235a2.783 2.783 0 0 0-.8.331l-.981-.767a4 4 0 0 0-.712.713l.768.984a2.744 2.744 0 0 0-.331.795l-1.236.158A3.9 3.9 0 0 0 1 11a3.9 3.9 0 0 0 .051.5l1.235.154a2.744 2.744 0 0 0 .331.795l-.768.984a4 4 0 0 0 .712.713l.985-.768a2.783 2.783 0 0 0 .8.331l.154 1.24A3.886 3.886 0 0 0 5 15a3.886 3.886 0 0 0 .5-.051l.153-1.235a2.783 2.783 0 0 0 .8-.331l.985.768a4 4 0 0 0 .712-.713l-.768-.984a2.744 2.744 0 0 0 .331-.795l1.236-.159A3.9 3.9 0 0 0 9 11a3.9 3.9 0 0 0-.051-.5zM5 13a2 2 0 1 1 2-2 2 2 0 0 1-2 2zm1-2a1 1 0 1 1-1-1 1 1 0 0 1 1 1zm5.767-6.191a1.1 1.1 0 1 1-1.445-.575 1.1 1.1 0 0 1 1.445.575z"/></svg>